<svg xmlns="http://www.w3.org/2000/svg" viewBox="0 0 32 32">
  <rect width="32" height="32" rx="7" fill="#0E0C0B"/>
  <!-- live-inference spark -->
  <rect x="15" y="3" width="2" height="3" rx="0.6" fill="#C17A4A"/>
  <!-- chimney + lid + chambers + handle -->
  <path fill="#F2EBE4" d="M14 6h4v2.6h-4z"/>
  <path fill="#F2EBE4" d="M11.4 8.6h9.2L19.4 10.6H12.6z"/>
  <path fill="#F2EBE4" d="M12.4 10.6h7.2l1.2 6.2H11.2z"/>
  <path fill="#D9CFC4" d="M13 16.8h6v1.6h-6z"/>
  <path fill="#F2EBE4" d="M10.8 18.4h10.4L23 27H9z"/>
  <path fill="#F2EBE4" d="M21.2 19.4c2.6.2 3.8 1.5 3.8 3.4 0 1.8-1.3 3.2-3.8 3.5v-1.7c1.4-.2 2-.9 2-1.8 0-.9-.7-1.5-2-1.7z"/>
</svg>
